# xmcd
#
# Track frame offsets:
#	150
#	14927
#	30202
#	44775
#	61920
#	77957
#	92325
#	104637
#	118475
#	130925
#	148840
#	166417
#	181735
#	196430
#	213867
#	226550
#	240000
#	252990
#	271702
#	284600
#
# Disc length: 3983 seconds
#
# Revision: 0
# Processed by: cddbd v1.5.2PL0 Copyright (c) Steve Scherf et al.
# Submitted via: EasyCDDAExtractor 2010.6.0.0
#
DISCID=1b0f8d14
DTITLE=Yoti Die Griekse Boertjie - Treffers
DYEAR=1997
DGENRE=
TTITLE0=Die Griekse Boertjie
TTITLE1=Jy Leef In My
TTITLE2=Die Wit Angelier
TTITLE3=Ek Is Lief Vir Jou
TTITLE4=Sagapo
TTITLE5=Melodeë Van Verlange
TTITLE6=Verushka
TTITLE7=Die Wiel Bly Draai
TTITLE8=Boemerang
TTITLE9=My Eie Melodie
TTITLE10=Hopa Zorba
TTITLE11=Mooi Griekeland
TTITLE12=My Ilana
TTITLE13=Tromme In Die Verte
TTITLE14=My Liewe Mariaan
TTITLE15=Lente In Athene
TTITLE16=Sonskynkind
TTITLE17=Wie Sal Weet
TTITLE18=Ossewaman
TTITLE19=In Bethlehem
EXTD=
EXTT0=
EXTT1=
EXTT2=
EXTT3=
EXTT4=
EXTT5=
EXTT6=
EXTT7=
EXTT8=
EXTT9=
EXTT10=
EXTT11=
EXTT12=
EXTT13=
EXTT14=
EXTT15=
EXTT16=
EXTT17=
EXTT18=
EXTT19=
PLAYORDER=
